<svg width="48" height="48" viewBox="0 0 48 48" fill="none" xmlns="http://www.w3.org/2000/svg">
<path d="M46 8.00015V20.0002M46 20.0002H34M46 20.0002L36.72 11.2802C34.5705 9.12958 31.9113 7.55856 28.9904 6.7137C26.0695 5.86883 22.9822 5.77765 20.0166 6.44867C17.0509 7.11968 14.3036 8.53102 12.0309 10.551C9.75827 12.571 8.03434 15.1337 7.02 18.0002M2 40.0002V28.0002M2 28.0002H14M2 28.0002L11.28 36.7202C13.4295 38.8707 16.0887 40.4417 19.0096 41.2866C21.9305 42.1315 25.0178 42.2226 27.9834 41.5516C30.9491 40.8806 33.6964 39.4693 35.9691 37.4493C38.2417 35.4293 39.9657 32.8666 40.98 30.0002" stroke="white" stroke-width="4" stroke-linecap="round" stroke-linejoin="round"/>
</svg>
