<svg width="48" height="48" viewBox="0 0 48 48" fill="none" xmlns="http://www.w3.org/2000/svg">
<path d="M29.3997 12.6004C29.0333 12.9743 28.828 13.4769 28.828 14.0004C28.828 14.524 29.0333 15.0266 29.3997 15.4004L32.5997 18.6004C32.9736 18.9669 33.4762 19.1722 33.9997 19.1722C34.5232 19.1722 35.0259 18.9669 35.3997 18.6004L42.9397 11.0604C43.9454 13.2828 44.2499 15.7589 43.8126 18.1587C43.3754 20.5586 42.2171 22.7681 40.4923 24.493C38.7674 26.2179 36.5578 27.3761 34.158 27.8134C31.7582 28.2506 29.2821 27.9461 27.0597 26.9404L13.2397 40.7604C12.4441 41.5561 11.3649 42.0031 10.2397 42.0031C9.11449 42.0031 8.03536 41.5561 7.23971 40.7604C6.44406 39.9648 5.99707 38.8857 5.99707 37.7604C5.99707 36.6352 6.44406 35.5561 7.23971 34.7604L21.0597 20.9404C20.054 18.7181 19.7495 16.242 20.1868 13.8422C20.624 11.4423 21.7823 9.23276 23.5072 7.50789C25.232 5.78302 27.4416 4.62479 29.8414 4.18753C32.2412 3.75028 34.7173 4.05478 36.9397 5.06045L29.3997 12.6004Z" stroke="white" stroke-width="4" stroke-linecap="round" stroke-linejoin="round"/>
</svg>
